<svg xmlns="http://www.w3.org/2000/svg"   style="
fill: white;
    width: 1em;
    height: 1em;
    display: inline-block;
    font-size: 1.5rem;
    transition: fill 200ms cubic-bezier(0.4, 0, 0.2, 1) 0ms;
    flex-shrink: 0;
    user-select: none;
" class="MuiSvgIcon-root" focusable="false" viewBox="0 0 24 24" aria-hidden="true"><path d="M20 8.69V4h-4.69L12 .69 8.69 4H4v4.69L.69 12 4 15.31V20h4.69L12 23.31 15.31 20H20v-4.69L23.31 12 20 8.69zM12 18c-3.31 0-6-2.69-6-6s2.69-6 6-6 6 2.69 6 6-2.69 6-6 6zm0-10c-2.21 0-4 1.79-4 4s1.79 4 4 4 4-1.79 4-4-1.79-4-4-4z"></path></svg>